# xmcd CD database file
#
# Track frame offsets:
#	150
#	18987
#	35262
#	55607
#	76918
#	92865
#	111624
#	129049
#	145228
#	162694
#	182596
#	200753
#	212940
#	231956
#	246392
#	262436
#	278161
#	296215
#	312796
#	328283
#	343951
#
# Disc length: 4794 seconds
#
# Revision: 1
# Processed by: cddbd v1.5.2PL0 Copyright (c) Steve Scherf et al.
# Submitted via: CDex 1.51
#
DISCID=5212b815
DTITLE=Various Artist - ZMPB-CD-4
DYEAR=1900
DGENRE=Blues
TTITLE0=Rihanna - Only Girl (in the world )
TTITLE1=Miley Cyrus - Party In The USA
TTITLE2=LMFAO - Party Rock Anthem
TTITLE3=Tinie Tempah - Pass Out
TTITLE4=Take That - Patience
TTITLE5=Lady Gaga - Poker Face
TTITLE6=Jessie J - Price Tag (for solo female )
TTITLE7=Pink - Raise Your Glass
TTITLE8=Amy Winehouse - Rehab
TTITLE9=Nickelback - Rockstar
TTITLE10=Adele - Rolling In The Deep
TTITLE11=Bruno Mars - Runaway Baby
TTITLE12=Adele - Set Fire To The Rain
TTITLE13=Marcus Collins - Seven Nation Army
TTITLE14=Kings Of Leon - Sex On Fire
TTITLE15=LMFAO - Sexy And I Know It
TTITLE16=Robbie Williams and Gary Barlow - Shame (for solo singer)
TTITLE17=Plan B - She Said
TTITLE18=Keane - Silence By The Night
TTITLE19=Beyonce - Single Ladies  (put a ring on it)
TTITLE20=Bruno Mars - The Lazy Song
EXTD=
EXTT0=
EXTT1=
EXTT2=
EXTT3=
EXTT4=
EXTT5=
EXTT6=
EXTT7=
EXTT8=
EXTT9=
EXTT10=
EXTT11=
EXTT12=
EXTT13=
EXTT14=
EXTT15=
EXTT16=
EXTT17=
EXTT18=
EXTT19=
EXTT20=
PLAYORDER=
